<svg width="293" height="32" viewBox="0 0 293 32" fill="none" xmlns="http://www.w3.org/2000/svg">
<path d="M3 30.9631C1.34315 30.9631 0 29.6199 0 27.9631V3.41761C0 1.76076 1.34315 0.417614 3 0.417614H12.6179C14.9048 0.417614 16.8786 0.865058 18.5391 1.75994C20.2095 2.64489 21.4972 3.88281 22.402 5.47372C23.3068 7.05469 23.7592 8.89418 23.7592 10.9922C23.7592 13.1001 23.2969 14.9446 22.3722 16.5256C21.4574 18.0966 20.1499 19.3146 18.4496 20.1797C16.7493 21.0447 14.7308 21.4773 12.3942 21.4773H7.51705C5.91079 21.4773 4.60866 20.1751 4.60866 18.5689V18.5689C4.60866 16.9626 5.91079 15.6605 7.51705 15.6605H11.022C12.1357 15.6605 13.0653 15.4666 13.8111 15.0788C14.5668 14.6911 15.1385 14.1491 15.5263 13.4531C15.9141 12.7472 16.108 11.9268 16.108 10.9922C16.108 10.0476 15.9141 9.23224 15.5263 8.54617C15.1385 7.85014 14.5668 7.31321 13.8111 6.93537C13.0554 6.55753 12.1257 6.36861 11.022 6.36861H10.3828C8.72596 6.36861 7.38281 7.71176 7.38281 9.36861V27.9631C7.38281 29.6199 6.03967 30.9631 4.38281 30.9631H3Z" fill="url(#paint0_linear_155_6016)"/>
<path d="M44.8984 30.9631C43.2416 30.9631 41.8984 29.6199 41.8984 27.9631V3.41761C41.8984 1.76076 43.2416 0.417614 44.8984 0.417614H54.5163C56.8033 0.417614 58.777 0.830256 60.4375 1.65554C62.108 2.47088 63.3956 3.64418 64.3004 5.17543C65.2053 6.69673 65.6577 8.50142 65.6577 10.5895C65.6577 12.7074 65.1953 14.5071 64.2706 15.9886C63.3459 17.4602 62.0334 18.5838 60.3331 19.3594C58.6328 20.125 56.6193 20.5078 54.2926 20.5078H49.2216C47.6153 20.5078 46.3132 19.2057 46.3132 17.5994V17.5994C46.3132 15.9932 47.6153 14.6911 49.2216 14.6911H52.9205C54.0341 14.6911 54.9638 14.5469 55.7095 14.2585C56.4652 13.9602 57.0369 13.5128 57.4247 12.9162C57.8125 12.3097 58.0064 11.5341 58.0064 10.5895C58.0064 9.64489 57.8125 8.86435 57.4247 8.24787C57.0369 7.62145 56.4652 7.15412 55.7095 6.84588C54.9538 6.5277 54.0241 6.36861 52.9205 6.36861H52.2812C50.6244 6.36861 49.2812 7.71176 49.2812 9.36861V27.9631C49.2812 29.6199 47.9381 30.9631 46.2812 30.9631H44.8984ZM57.3134 17.0028C58.4117 17.0028 59.4222 17.603 59.9477 18.5675L64.285 26.5277C65.3742 28.5268 63.9272 30.9631 61.6507 30.9631H60.4464C59.3391 30.9631 58.3219 30.3532 57.8003 29.3766L53.548 21.4164C52.4805 19.418 53.9285 17.0028 56.1941 17.0028H57.3134Z" fill="url(#paint1_linear_155_6016)"/>
<path d="M113.037 15.6903C113.037 19.0511 112.391 21.8999 111.098 24.2365C109.806 26.5732 108.056 28.348 105.848 29.5611C103.651 30.7741 101.185 31.3807 98.4506 31.3807C95.7063 31.3807 93.2354 30.7692 91.038 29.5462C88.8406 28.3232 87.0955 26.5483 85.8029 24.2216C84.5202 21.8849 83.8789 19.0412 83.8789 15.6903C83.8789 12.3295 84.5202 9.48082 85.8029 7.14418C87.0955 4.80753 88.8406 3.03267 91.038 1.8196C93.2354 0.606534 95.7063 0 98.4506 0C101.185 0 103.651 0.606534 105.848 1.8196C108.056 3.03267 109.806 4.80753 111.098 7.14418C112.391 9.48082 113.037 12.3295 113.037 15.6903ZM105.49 15.6903C105.49 13.7017 105.207 12.0213 104.64 10.6491C104.083 9.27699 103.278 8.23793 102.224 7.53196C101.18 6.82599 99.9222 6.47301 98.4506 6.47301C96.989 6.47301 95.7312 6.82599 94.6772 7.53196C93.6232 8.23793 92.8129 9.27699 92.2461 10.6491C91.6893 12.0213 91.4109 13.7017 91.4109 15.6903C91.4109 17.679 91.6893 19.3594 92.2461 20.7315C92.8129 22.1037 93.6232 23.1428 94.6772 23.8487C95.7312 24.5547 96.989 24.9077 98.4506 24.9077C99.9222 24.9077 101.18 24.5547 102.224 23.8487C103.278 23.1428 104.083 22.1037 104.64 20.7315C105.207 19.3594 105.49 17.679 105.49 15.6903Z" fill="url(#paint2_linear_155_6016)"/>
<path d="M158.894 8.25488C159.467 9.9317 158.039 11.4844 156.266 11.4844H154.288C153.046 11.4844 152.061 10.5222 151.505 9.41122V9.41122C151.197 8.79474 150.789 8.26776 150.282 7.83026C149.775 7.39276 149.174 7.05966 148.478 6.83097C147.792 6.59233 147.031 6.47301 146.196 6.47301C144.714 6.47301 143.436 6.83594 142.363 7.56179C141.299 8.28764 140.478 9.33665 139.902 10.7088C139.335 12.081 139.051 13.7415 139.051 15.6903C139.051 17.7188 139.34 19.419 139.917 20.7912C140.503 22.1534 141.324 23.1825 142.377 23.8786C143.441 24.5646 144.699 24.9077 146.151 24.9077C146.966 24.9077 147.707 24.8033 148.373 24.5945C149.049 24.3857 149.641 24.0824 150.148 23.6847C150.665 23.277 151.088 22.7848 151.416 22.2081V22.2081C152.026 21.1501 153.01 20.2298 154.231 20.2371L156.294 20.2495C158.056 20.2601 159.447 21.8093 158.774 23.4382C158.66 23.7151 158.534 23.9912 158.396 24.2663C157.75 25.5788 156.86 26.777 155.726 27.8608C154.593 28.9347 153.211 29.7898 151.58 30.4261C149.959 31.0625 148.1 31.3807 146.002 31.3807C143.238 31.3807 140.762 30.7741 138.574 29.5611C136.397 28.3381 134.676 26.5582 133.414 24.2216C132.151 21.8849 131.52 19.0412 131.52 15.6903C131.52 12.3295 132.161 9.48082 133.444 7.14418C134.726 4.80753 136.461 3.03267 138.649 1.8196C140.836 0.606534 143.287 0 146.002 0C147.851 0 149.561 0.258524 151.132 0.77557C152.703 1.28267 154.086 2.02841 155.279 3.01278C156.472 3.98722 157.441 5.18537 158.187 6.60725C158.461 7.12901 158.696 7.67822 158.894 8.25488Z" fill="url(#paint3_linear_155_6016)"/>
<path d="M181.299 30.9631C179.642 30.9631 178.299 29.6199 178.299 27.9631V3.41761C178.299 1.76076 179.642 0.417614 181.299 0.417614H182.682C184.338 0.417614 185.682 1.76076 185.682 3.41761V9.67756C185.682 11.3344 187.025 12.6776 188.682 12.6776H194.718C196.375 12.6776 197.718 11.3344 197.718 9.67756V3.41761C197.718 1.76076 199.061 0.417614 200.718 0.417614H202.086C203.743 0.417614 205.086 1.76076 205.086 3.41761V27.9631C205.086 29.6199 203.743 30.9631 202.086 30.9631H200.718C199.061 30.9631 197.718 29.6199 197.718 27.9631V21.6882C197.718 20.0314 196.375 18.6882 194.718 18.6882H188.682C187.025 18.6882 185.682 20.0314 185.682 21.6882V27.9631C185.682 29.6199 184.338 30.9631 182.682 30.9631H181.299Z" fill="url(#paint4_linear_155_6016)"/>
<path d="M231.483 28.86C231.091 30.1114 229.932 30.9631 228.62 30.9631H227.068C225.015 30.9631 223.569 28.9486 224.225 27.004L232.507 2.45853C232.918 1.23883 234.062 0.417614 235.349 0.417614H240.87C242.158 0.417614 243.301 1.23883 243.713 2.45853L251.995 27.004C252.651 28.9486 251.204 30.9631 249.152 30.9631H247.598C246.288 30.9631 245.129 30.1122 244.736 28.8617L238.258 8.22744C238.236 8.15972 238.173 8.11364 238.102 8.11364V8.11364C238.031 8.11364 237.969 8.15976 237.947 8.22753L231.483 28.86ZM229.765 21.7457C229.765 20.1971 231.02 18.9418 232.569 18.9418H243.546C245.095 18.9418 246.35 20.1971 246.35 21.7457V21.7457C246.35 23.2943 245.095 24.5497 243.546 24.5497H232.569C231.02 24.5497 229.765 23.2943 229.765 21.7457V21.7457Z" fill="url(#paint5_linear_155_6016)"/>
<path d="M269.303 6.41335C267.648 6.41335 266.305 5.07116 266.305 3.41548V3.41548C266.305 1.75981 267.648 0.417614 269.303 0.417614H289.125C290.781 0.417614 292.123 1.75981 292.123 3.41548V3.41548C292.123 5.07116 290.781 6.41335 289.125 6.41335H285.861C284.204 6.41335 282.861 7.7565 282.861 9.41335V27.9631C282.861 29.6199 281.518 30.9631 279.861 30.9631H278.582C276.926 30.9631 275.582 29.6199 275.582 27.9631V9.41335C275.582 7.75649 274.239 6.41335 272.582 6.41335H269.303Z" fill="url(#paint6_linear_155_6016)"/>
<defs>
<linearGradient id="paint0_linear_155_6016" x1="146.061" y1="0" x2="146.061" y2="31.3807" gradientUnits="userSpaceOnUse">
<stop stop-color="#52FFAC"/>
<stop offset="1" stop-color="#64D2FF"/>
</linearGradient>
<linearGradient id="paint1_linear_155_6016" x1="146.061" y1="0" x2="146.061" y2="31.3807" gradientUnits="userSpaceOnUse">
<stop stop-color="#52FFAC"/>
<stop offset="1" stop-color="#64D2FF"/>
</linearGradient>
<linearGradient id="paint2_linear_155_6016" x1="146.061" y1="0" x2="146.061" y2="31.3807" gradientUnits="userSpaceOnUse">
<stop stop-color="#52FFAC"/>
<stop offset="1" stop-color="#64D2FF"/>
</linearGradient>
<linearGradient id="paint3_linear_155_6016" x1="146.061" y1="0" x2="146.061" y2="31.3807" gradientUnits="userSpaceOnUse">
<stop stop-color="#52FFAC"/>
<stop offset="1" stop-color="#64D2FF"/>
</linearGradient>
<linearGradient id="paint4_linear_155_6016" x1="146.061" y1="0" x2="146.061" y2="31.3807" gradientUnits="userSpaceOnUse">
<stop stop-color="#52FFAC"/>
<stop offset="1" stop-color="#64D2FF"/>
</linearGradient>
<linearGradient id="paint5_linear_155_6016" x1="146.061" y1="0" x2="146.061" y2="31.3807" gradientUnits="userSpaceOnUse">
<stop stop-color="#52FFAC"/>
<stop offset="1" stop-color="#64D2FF"/>
</linearGradient>
<linearGradient id="paint6_linear_155_6016" x1="146.061" y1="0" x2="146.061" y2="31.3807" gradientUnits="userSpaceOnUse">
<stop stop-color="#52FFAC"/>
<stop offset="1" stop-color="#64D2FF"/>
</linearGradient>
</defs>
</svg>
