<svg width="294"
     height="32"
     viewBox="0 0 294 32"
     fill="none"
     xmlns="http://www.w3.org/2000/svg">
    <defs>
        <linearGradient id="gr1"
                        x1="147.061"
                        y1="0"
                        x2="147.061"
                        y2="31.3807"
                        gradientUnits="userSpaceOnUse">
            <stop offset="0" stop-color="#52FFAC" />
            <stop offset="1" stop-color="#64D2FF" />
        </linearGradient>
        <linearGradient id="gr2"
                        x1="147.061"
                        y1="0"
                        x2="147.061"
                        y2="31.3807"
                        gradientUnits="userSpaceOnUse">
            <stop offset="0" stop-color="#52FFAC" />
            <stop offset="1" stop-color="#64D2FF" />
        </linearGradient>
        <linearGradient id="gr3"
                        x1="147.061"
                        y1="0"
                        x2="147.061"
                        y2="31.3807"
                        gradientUnits="userSpaceOnUse">
            <stop offset="0" stop-color="#52FFAC" />
            <stop offset="1" stop-color="#64D2FF" />
        </linearGradient>
        <linearGradient id="gr4"
                        x1="147.061"
                        y1="0"
                        x2="147.061"
                        y2="31.3807"
                        gradientUnits="userSpaceOnUse">
            <stop offset="0" stop-color="#52FFAC" />
            <stop offset="1" stop-color="#64D2FF" />
        </linearGradient>
        <linearGradient id="gr5"
                        x1="147.061"
                        y1="0"
                        x2="147.061"
                        y2="31.3807"
                        gradientUnits="userSpaceOnUse">
            <stop offset="0" stop-color="#52FFAC" />
            <stop offset="1" stop-color="#64D2FF" />
        </linearGradient>
        <linearGradient id="gr6"
                        x1="147.061"
                        y1="0"
                        x2="147.061"
                        y2="31.3807"
                        gradientUnits="userSpaceOnUse">
            <stop offset="0" stop-color="#52FFAC" />
            <stop offset="1" stop-color="#64D2FF" />
        </linearGradient>
        <linearGradient id="gr7"
                        x1="147.061"
                        y1="0"
                        x2="147.061"
                        y2="31.3807"
                        gradientUnits="userSpaceOnUse">
            <stop offset="0" stop-color="#52FFAC" />
            <stop offset="1" stop-color="#64D2FF" />
        </linearGradient>
    </defs>

    <path d="M4 30.9631C2.34315 30.9631 1 29.6199 1 27.9631V3.41761C1 1.76076 2.34315 0.417614 4 0.417614H13.6179C15.9048 0.417614 17.8786 0.865058 19.5391 1.75994C21.2095 2.64489 22.4972 3.88281 23.402 5.47372C24.3068 7.05469 24.7592 8.89418 24.7592 10.9922C24.7592 13.1001 24.2969 14.9446 23.3722 16.5256C22.4574 18.0966 21.1499 19.3146 19.4496 20.1797C17.7493 21.0447 15.7308 21.4773 13.3942 21.4773H8.51705C6.91079 21.4773 5.60866 20.1751 5.60866 18.5689C5.60866 16.9626 6.91079 15.6605 8.51705 15.6605H12.022C13.1357 15.6605 14.0653 15.4666 14.8111 15.0788C15.5668 14.6911 16.1385 14.1491 16.5263 13.4531C16.9141 12.7472 17.108 11.9268 17.108 10.9922C17.108 10.0476 16.9141 9.23224 16.5263 8.54617C16.1385 7.85014 15.5668 7.31321 14.8111 6.93537C14.0554 6.55753 13.1257 6.36861 12.022 6.36861H11.3828C9.72596 6.36861 8.38281 7.71176 8.38281 9.36861V27.9631C8.38281 29.6199 7.03967 30.9631 5.38281 30.9631H4Z" fill="url(#gr1)" />
    <path d="M45.8984 30.9631C44.2416 30.9631 42.8984 29.6199 42.8984 27.9631V3.41761C42.8984 1.76076 44.2416 0.417614 45.8984 0.417614H55.5163C57.8033 0.417614 59.777 0.830256 61.4375 1.65554C63.108 2.47088 64.3956 3.64418 65.3004 5.17543C66.2053 6.69673 66.6577 8.50142 66.6577 10.5895C66.6577 12.7074 66.1953 14.5071 65.2706 15.9886C64.3459 17.4602 63.0334 18.5838 61.3331 19.3594C59.6328 20.125 57.6193 20.5078 55.2926 20.5078H50.2216C48.6153 20.5078 47.3132 19.2057 47.3132 17.5994C47.3132 15.9932 48.6153 14.6911 50.2216 14.6911H53.9205C55.0341 14.6911 55.9638 14.5469 56.7095 14.2585C57.4652 13.9602 58.0369 13.5128 58.4247 12.9162C58.8125 12.3097 59.0064 11.5341 59.0064 10.5895C59.0064 9.64489 58.8125 8.86435 58.4247 8.24787C58.0369 7.62145 57.4652 7.15412 56.7095 6.84588C55.9538 6.5277 55.0241 6.36861 53.9205 6.36861H53.2812C51.6244 6.36861 50.2812 7.71176 50.2812 9.36861V27.9631C50.2812 29.6199 48.9381 30.9631 47.2812 30.9631H45.8984ZM58.3134 17.0028C59.4117 17.0028 60.4222 17.603 60.9477 18.5675L65.285 26.5277C66.3742 28.5268 64.9272 30.9631 62.6507 30.9631H61.4464C60.3391 30.9631 59.3219 30.3532 58.8003 29.3766L54.548 21.4164C53.4805 19.418 54.9285 17.0028 57.1941 17.0028H58.3134Z" fill="url(#gr2)" />
    <path d="M114.037 15.6903C114.037 19.0511 113.391 21.8999 112.098 24.2365C110.806 26.5732 109.056 28.348 106.848 29.5611C104.651 30.7741 102.185 31.3807 99.4506 31.3807C96.7063 31.3807 94.2354 30.7692 92.038 29.5462C89.8406 28.3232 88.0955 26.5483 86.8029 24.2216C85.5202 21.8849 84.8789 19.0412 84.8789 15.6903C84.8789 12.3295 85.5202 9.48082 86.8029 7.14418C88.0955 4.80753 89.8406 3.03267 92.038 1.8196C94.2354 0.606534 96.7063 0 99.4506 0C102.185 0 104.651 0.606534 106.848 1.8196C109.056 3.03267 110.806 4.80753 112.098 7.14418C113.391 9.48082 114.037 12.3295 114.037 15.6903ZM106.49 15.6903C106.49 13.7017 106.207 12.0213 105.64 10.6491C105.083 9.27699 104.278 8.23793 103.224 7.53196C102.18 6.82599 100.922 6.47301 99.4506 6.47301C97.989 6.47301 96.7312 6.82599 95.6772 7.53196C94.6232 8.23793 93.8129 9.27699 93.2461 10.6491C92.6893 12.0213 92.4109 13.7017 92.4109 15.6903C92.4109 17.679 92.6893 19.3594 93.2461 20.7315C93.8129 22.1037 94.6232 23.1428 95.6772 23.8487C96.7312 24.5547 97.989 24.9077 99.4506 24.9077C100.922 24.9077 102.18 24.5547 103.224 23.8487C104.278 23.1428 105.083 22.1037 105.64 20.7315C106.207 19.3594 106.49 17.679 106.49 15.6903Z" fill="url(#gr3)" />
    <path d="M159.894 8.25488C160.467 9.9317 159.039 11.4844 157.266 11.4844H155.288C154.046 11.4844 153.061 10.5222 152.505 9.41122C152.197 8.79474 151.789 8.26776 151.282 7.83026C150.775 7.39276 150.174 7.05966 149.478 6.83097C148.792 6.59233 148.031 6.47301 147.196 6.47301C145.714 6.47301 144.436 6.83594 143.363 7.56179C142.299 8.28764 141.478 9.33665 140.902 10.7088C140.335 12.081 140.051 13.7415 140.051 15.6903C140.051 17.7188 140.34 19.419 140.917 20.7912C141.503 22.1534 142.324 23.1825 143.377 23.8786C144.441 24.5646 145.699 24.9077 147.151 24.9077C147.966 24.9077 148.707 24.8033 149.373 24.5945C150.049 24.3857 150.641 24.0824 151.148 23.6847C151.665 23.277 152.088 22.7848 152.416 22.2081C153.026 21.1501 154.01 20.2298 155.231 20.2371L157.294 20.2495C159.056 20.2601 160.447 21.8093 159.774 23.4382C159.66 23.7151 159.534 23.9912 159.396 24.2663C158.75 25.5788 157.86 26.777 156.726 27.8608C155.593 28.9347 154.211 29.7898 152.58 30.4261C150.959 31.0625 149.1 31.3807 147.002 31.3807C144.238 31.3807 141.762 30.7741 139.574 29.5611C137.397 28.3381 135.676 26.5582 134.414 24.2216C133.151 21.8849 132.52 19.0412 132.52 15.6903C132.52 12.3295 133.161 9.48082 134.444 7.14418C135.726 4.80753 137.461 3.03267 139.649 1.8196C141.836 0.606534 144.287 0 147.002 0C148.851 0 150.561 0.258524 152.132 0.77557C153.703 1.28267 155.086 2.02841 156.279 3.01278C157.472 3.98722 158.441 5.18537 159.187 6.60725C159.461 7.12901 159.696 7.67822 159.894 8.25488Z" fill="url(#gr4)" />
    <path d="M182.299 30.9631C180.642 30.9631 179.299 29.6199 179.299 27.9631V3.41761C179.299 1.76076 180.642 0.417614 182.299 0.417614H183.682C185.339 0.417614 186.682 1.76076 186.682 3.41761V9.67756C186.682 11.3344 188.025 12.6776 189.682 12.6776H195.718C197.375 12.6776 198.718 11.3344 198.718 9.67756V3.41761C198.718 1.76076 200.061 0.417614 201.718 0.417614H203.086C204.743 0.417614 206.086 1.76076 206.086 3.41761V27.9631C206.086 29.6199 204.743 30.9631 203.086 30.9631H201.718C200.061 30.9631 198.718 29.6199 198.718 27.9631V21.6882C198.718 20.0314 197.375 18.6882 195.718 18.6882H189.682C188.025 18.6882 186.682 20.0314 186.682 21.6882V27.9631C186.682 29.6199 185.339 30.9631 183.682 30.9631H182.299Z" fill="url(#gr5)" />
    <path d="M232.483 28.86C232.091 30.1114 230.932 30.9631 229.62 30.9631H228.068C226.015 30.9631 224.569 28.9486 225.225 27.004L233.507 2.45853C233.918 1.23883 235.062 0.417614 236.349 0.417614H241.87C243.158 0.417614 244.301 1.23883 244.713 2.45853L252.995 27.004C253.651 28.9486 252.204 30.9631 250.152 30.9631H248.598C247.288 30.9631 246.129 30.1122 245.736 28.8617L239.258 8.22744C239.236 8.15972 239.173 8.11364 239.102 8.11364C239.031 8.11364 238.969 8.15976 238.947 8.22753L232.483 28.86ZM230.765 21.7457C230.765 20.1971 232.02 18.9418 233.569 18.9418H244.546C246.095 18.9418 247.35 20.1971 247.35 21.7457C247.35 23.2943 246.095 24.5497 244.546 24.5497H233.569C232.02 24.5497 230.765 23.2943 230.765 21.7457Z" fill="url(#gr6)" />
    <path d="M270.303 6.41335C268.648 6.41335 267.305 5.07116 267.305 3.41548C267.305 1.75981 268.648 0.417614 270.303 0.417614H290.125C291.781 0.417614 293.123 1.75981 293.123 3.41548C293.123 5.07116 291.781 6.41335 290.125 6.41335H286.861C285.204 6.41335 283.861 7.7565 283.861 9.41335V27.9631C283.861 29.6199 282.518 30.9631 280.861 30.9631H279.582C277.926 30.9631 276.582 29.6199 276.582 27.9631V9.41335C276.582 7.75649 275.239 6.41335 273.582 6.41335H270.303Z" fill="url(#gr7)" />
    

</svg>