<svg width="55"
     height="55"
     viewBox="0 0 55 55"
     fill="none"
     xmlns="http://www.w3.org/2000/svg">
    <defs>
        <linearGradient id="paint0_linear_0_613"
                        x1="27.5"
                        y1="0"
                        x2="27.5"
                        y2="54.5254"
                        gradientUnits="userSpaceOnUse">
            <stop stop-color="#52FFAC" />
            <stop offset="1" stop-color="#64D2FF" />
        </linearGradient>
        <linearGradient id="paint1_linear_0_613"
                        x1="27.2357"
                        y1="16.5034"
                        x2="27.2357"
                        y2="41.9995"
                        gradientUnits="userSpaceOnUse">
            <stop stop-color="#52FFAC" />
            <stop offset="1" stop-color="#64D2FF" />
        </linearGradient>
        <linearGradient id="paint2_linear_0_613"
                        x1="30.5995"
                        y1="8.3999"
                        x2="30.5995"
                        y2="16.1835"
                        gradientUnits="userSpaceOnUse">
            <stop stop-color="#52FFAC" />
            <stop offset="1" stop-color="#64D2FF" />
        </linearGradient>
    </defs>
    <path d="M27.4769 54.5251C12.2028 54.5907 -0.356469 41.9907 0.00772636 26.6016C0.34985 11.9454 12.6001 -0.162414 27.8301 0.00164793C42.9166 0.16571 55.3986 12.6126 54.9903 28.0235C54.604 42.6141 42.4531 54.6016 27.4769 54.5251ZM3.35171 27.3016C3.4731 41.0063 14.6859 51.561 27.9294 51.3313C40.7535 51.1016 51.6242 40.7438 51.6242 27.2688C51.6242 13.5641 40.3231 2.96571 27.0355 3.21727C14.2114 3.44696 3.44 13.8376 3.35171 27.3016Z" fill="url(#paint0_linear_0_613)" />
    <path d="M21.8152 16.6296C23.1863 16.5896 24.3234 17.056 25.4671 17.4825C25.9754 17.6757 26.4837 17.8689 27.0121 18.0089C27.4268 18.1221 27.8281 18.0688 28.2227 17.9222C28.9049 17.6757 29.5805 17.4292 30.2627 17.176C31.4532 16.7362 32.6772 16.4364 33.948 16.5163C36.3224 16.6629 38.3356 17.5824 39.8673 19.4414C40.1348 19.7612 40.1148 19.7946 39.7803 20.0278C37.2989 21.7668 36.2154 24.1589 36.5498 27.1506C36.8441 29.8091 38.2554 31.7148 40.6365 32.9208C40.9441 33.074 41.0043 33.2139 40.8906 33.5271C40.0947 35.6926 38.971 37.6715 37.4996 39.4506C37.0582 39.9836 36.61 40.5033 36.0883 40.9498C34.9179 41.9425 33.5935 42.1624 32.1154 41.776C31.3596 41.5761 30.6573 41.2363 29.9149 40.9897C28.4836 40.5233 27.0723 40.6099 25.6544 41.063C24.9119 41.3029 24.2097 41.6294 23.4539 41.8359C21.9824 42.2424 20.7384 41.8826 19.6415 40.8565C17.7821 39.1241 16.4043 37.0519 15.3742 34.7531C14.6184 33.0873 14.0767 31.3283 13.7824 29.5026C13.4145 27.2439 13.3878 24.9984 14.0834 22.7929C14.6452 20.9872 15.615 19.4414 17.1199 18.2754C18.5245 17.1893 20.123 16.603 21.8152 16.6296Z" fill="url(#paint1_linear_0_613)" />
    <path d="M27.1926 15.4303C27.2595 13.3181 28.1825 11.6257 29.7542 10.2531C30.8913 9.2603 32.2223 8.68727 33.6937 8.41409C33.9211 8.37411 34.0148 8.40742 34.0215 8.66062C34.0415 11.1659 33.1118 13.2315 31.1923 14.8573C30.1556 15.7368 28.9717 16.1699 27.6139 16.1832C27.2795 16.1899 27.1391 16.0966 27.1859 15.7568C27.206 15.6568 27.1926 15.5436 27.1926 15.4303Z" fill="url(#paint2_linear_0_613)" />
</svg>
