<svg width="55"
     height="55"
     viewBox="0 0 55 55"
     fill="none"
     xmlns="http://www.w3.org/2000/svg">
    <defs>
        <linearGradient id="paint0_linear_0_620"
                        x1="27.8232"
                        y1="0.932983"
                        x2="27.8232"
                        y2="54.4847"
                        gradientUnits="userSpaceOnUse">
            <stop stop-color="#52FFAC" />
            <stop offset="1" stop-color="#64D2FF" />
        </linearGradient>
        <linearGradient id="paint1_linear_0_620"
                        x1="27.7632"
                        y1="8.64746"
                        x2="27.7632"
                        y2="46.5781"
                        gradientUnits="userSpaceOnUse">
            <stop stop-color="#52FFAC" />
            <stop offset="1" stop-color="#64D2FF" />
        </linearGradient>
    </defs>
    <path d="M27.8007 54.4844C12.9335 54.5488 0.708937 42.1738 1.06343 27.0596C1.39644 12.6651 13.3203 0.773469 28.1445 0.934602C42.829 1.09573 54.9784 13.3203 54.581 28.4561C54.205 42.7861 42.3779 54.5596 27.8007 54.4844ZM4.31831 27.7471C4.43647 41.207 15.3505 51.5733 28.2411 51.3477C40.7236 51.1221 51.3046 40.9492 51.3046 27.7149C51.3046 14.2549 40.3046 3.84573 27.371 4.0928C14.8886 4.31839 4.40425 14.5235 4.31831 27.7471Z" fill="url(#paint0_linear_0_620)" />
    <path d="M22.2148 46.5566C22.2148 40.2295 22.2148 33.956 22.2148 27.6182C20.8184 27.6182 19.4648 27.6182 18.0791 27.6182C18.0791 25.4697 18.0791 23.3857 18.0791 21.2373C18.2617 21.2266 18.4443 21.2051 18.6377 21.2051C19.6367 21.2051 20.6465 21.1836 21.6455 21.2158C22.0859 21.2266 22.2363 21.1084 22.2256 20.6572C22.2041 19.0244 22.2041 17.4023 22.2148 15.7695C22.2256 13.9326 22.7412 12.2676 24.0518 10.9355C25.3193 9.64648 26.9414 8.94824 28.7031 8.84082C31.5391 8.67969 34.3857 8.70117 37.2324 8.64746C37.2646 8.64746 37.2969 8.67969 37.3613 8.71191C37.3613 10.8711 37.3613 13.041 37.3613 15.2646C37.1572 15.2754 36.9639 15.2861 36.7812 15.2861C35.4922 15.2861 34.2031 15.2861 32.9141 15.2861C31.6143 15.2969 30.8516 16.0703 30.8516 17.3486C30.8516 18.5625 30.8516 19.7871 30.8623 21.001C30.8623 21.0332 30.8838 21.0654 30.916 21.1836C33.043 21.1836 35.1914 21.1836 37.4473 21.1836C37.168 23.3643 36.9101 25.4482 36.6309 27.6074C34.6865 27.6074 32.7852 27.6074 30.8301 27.6074C30.8301 33.9668 30.8301 40.2617 30.8301 46.5781C27.9404 46.5566 25.126 46.5566 22.2148 46.5566Z" fill="url(#paint1_linear_0_620)" />
</svg>
