<svg width="100"
     height="100"
     viewBox="0 0 100 100"
     fill="none"
     xmlns="http://www.w3.org/2000/svg">
    <defs>
        <linearGradient id="gr"
                        x1="50.0002"
                        y1="25"
                        x2="50.0002"
                        y2="59.3753"
                        gradientUnits="userSpaceOnUse">
            <stop offset="0" stop-color="#52FFAC" />
            <stop offset="1" stop-color="#64D2FF" />
        </linearGradient>
        <linearGradient id="gr1"
                        x1="50"
                        y1="6.25"
                        x2="50"
                        y2="93.75"
                        gradientUnits="userSpaceOnUse">
            <stop offset="0" stop-color="#52FFAC" />
            <stop offset="1" stop-color="#64D2FF" />
        </linearGradient>
     
        </defs>

        <path id="path1" d="M50 59.3753C46.3903 59.3785 42.8361 58.487 39.6552 56.7807C37.3946 55.568 35.3726 53.9707 33.6761 52.0678C32.5283 50.7804 32.9355 48.824 34.3721 47.8694C35.811 46.9133 37.734 47.3344 38.956 48.5555C40.0312 49.6298 41.2614 50.5454 42.6104 51.2695C44.8826 52.4891 47.4212 53.1273 50 53.1273C52.5788 53.1273 55.1174 52.4891 57.3896 51.2695C58.7386 50.5454 59.9688 49.6298 61.044 48.5555C62.266 47.3344 64.189 46.9133 65.6279 47.8694C67.0645 48.824 67.4717 50.7804 66.3239 52.0678C64.6274 53.9707 62.6054 55.568 60.3449 56.7807C57.1639 58.487 53.6097 59.3785 50 59.3753ZM62.5 25.0003C61.2639 25.0003 60.0555 25.3669 59.0277 26.0536C57.9999 26.7404 57.1988 27.7165 56.7258 28.8585C56.2527 30.0006 56.1289 31.2573 56.3701 32.4696C56.6113 33.682 57.2065 34.7957 58.0806 35.6697C58.9547 36.5438 60.0683 37.1391 61.2807 37.3802C62.4931 37.6214 63.7497 37.4976 64.8918 37.0246C66.0338 36.5515 67.0099 35.7504 67.6967 34.7226C68.3834 33.6948 68.75 32.4865 68.75 31.2503C68.7584 30.4272 68.6024 29.6108 68.2913 28.8487C67.9801 28.0866 67.5201 27.3943 66.938 26.8123C66.356 26.2302 65.6637 25.7702 64.9016 25.459C64.1396 25.1479 63.3231 24.992 62.5 25.0003ZM37.5 25.0003C36.2639 25.0003 35.0555 25.3669 34.0277 26.0536C32.9999 26.7404 32.1988 27.7165 31.7258 28.8585C31.2527 30.0006 31.1289 31.2573 31.3701 32.4696C31.6113 33.682 32.2065 34.7957 33.0806 35.6697C33.9547 36.5438 35.0683 37.1391 36.2807 37.3802C37.4931 37.6214 38.7497 37.4976 39.8918 37.0246C41.0338 36.5515 42.0099 35.7504 42.6967 34.7226C43.3834 33.6948 43.75 32.4865 43.75 31.2503C43.7584 30.4272 43.6024 29.6108 43.2913 28.8487C42.9801 28.0866 42.5201 27.3943 41.938 26.8123C41.356 26.2302 40.6637 25.7702 39.9016 25.459C39.1396 25.1479 38.3231 24.992 37.5 25.0003Z" fill="url(#gr)" />
        <path id="path2" d="M56.9836 91.0228C56.1237 92.5275 54.2049 93.0472 52.7032 92.1821C51.2087 91.3213 50.6921 89.4139 51.5477 87.9165L60.1966 72.7809C61.621 70.2883 64.2717 68.75 67.1426 68.75H81.25C82.0711 68.7512 82.8844 68.5904 83.6432 68.2768C84.4021 67.9631 85.0916 67.5028 85.6722 66.9222C86.2528 66.3416 86.7131 65.6521 87.0268 64.8932C87.3404 64.1344 87.5012 63.3211 87.5 62.5V18.75C87.5012 17.9289 87.3404 17.1156 87.0268 16.3568C86.7131 15.5979 86.2528 14.9084 85.6722 14.3278C85.0916 13.7472 84.4021 13.2869 83.6432 12.9732C82.8844 12.6596 82.0711 12.4988 81.25 12.5H18.75C17.9289 12.4988 17.1156 12.6596 16.3568 12.9732C15.5979 13.2869 14.9084 13.7472 14.3278 14.3278C13.7472 14.9084 13.2869 15.5979 12.9732 16.3568C12.6596 17.1156 12.4988 17.9289 12.5 18.75V62.5C12.4988 63.3211 12.6596 64.1344 12.9732 64.8932C13.2869 65.6521 13.7472 66.3416 14.3278 66.9222C14.9084 67.5028 15.5979 67.9631 16.3568 68.2768C17.1156 68.5904 17.9289 68.7512 18.75 68.75H43.75C45.4759 68.75 46.875 70.1491 46.875 71.875C46.875 73.6009 45.4759 75 43.75 75H18.75C15.4348 75 12.2554 73.683 9.91117 71.3388C7.56696 68.9946 6.25 65.8152 6.25 62.5V18.75C6.24959 17.1084 6.57263 15.4827 7.20067 13.966C7.82871 12.4492 8.74944 11.0711 9.91025 9.91025C11.0711 8.74944 12.4492 7.82871 13.966 7.20067C15.4827 6.57263 17.1084 6.24959 18.75 6.25H81.25C82.8916 6.24959 84.5173 6.57263 86.034 7.20067C87.5508 7.82871 88.9289 8.74944 90.0898 9.91025C91.2506 11.0711 92.1713 12.4492 92.7993 13.966C93.4274 15.4827 93.7504 17.1084 93.75 18.75V62.5C93.75 65.8152 92.433 68.9946 90.0888 71.3388C87.7446 73.683 84.5652 75 81.25 75H70.7829C67.9122 75 65.2616 76.5381 63.8372 79.0305L56.9836 91.0228Z" fill="url(#gr1)" />
 
    </svg>